<svg width="555" height="405" viewBox="0 0 555 405" fill="none" xmlns="http://www.w3.org/2000/svg">
<g clip-path="url(#clip0)">
<path d="M505.239 211.175C497.756 233.455 487.331 254.513 474.27 273.73C473.969 274.177 473.663 274.614 473.355 275.058L433.727 261.543C433.906 261.112 434.102 260.629 434.31 260.102C446.79 229.013 521.898 39.5082 513.923 0C514.684 3.24421 539.569 110.576 505.239 211.175Z" fill="#E6E6E6"/>
<path d="M481.915 276.338C481.431 276.722 480.932 277.101 480.43 277.471L450.702 267.332C451.057 266.986 451.471 266.577 451.947 266.117C459.729 258.457 482.848 235.506 505.239 211.175C529.301 185.029 552.529 157.294 555 145.232C554.535 147.984 539.874 231.711 481.915 276.338Z" fill="#E6E6E6"/>
<path d="M526.698 405H17.0875C12.5556 405 8.20934 403.104 5.00481 399.729C1.80028 396.355 0 391.777 0 387.005C184.734 364.395 365.995 364.395 543.785 387.005C543.785 391.777 541.985 396.355 538.78 399.729C535.576 403.104 531.229 405 526.698 405Z" fill="#2F2E41"/>
<path d="M543.785 388.063L0 387.005L63.0228 275.328L63.3243 274.799V28.6766C63.3241 25.6892 63.8827 22.731 64.9681 19.971C66.0535 17.2109 67.6446 14.7031 69.6505 12.5907C71.6563 10.4783 74.0377 8.80269 76.6585 7.65957C79.2793 6.51646 82.0882 5.92824 84.9249 5.92849H455.845C458.681 5.92824 461.49 6.51647 464.111 7.65958C466.732 8.8027 469.113 10.4783 471.119 12.5907C473.125 14.7031 474.716 17.2109 475.802 19.971C476.887 22.731 477.446 25.6892 477.445 28.6766V276.493L543.785 388.063Z" fill="#3F3D56"/>
<path d="M84.4324 21.8067C82.567 21.8089 80.7785 22.5903 79.4595 23.9794C78.1404 25.3685 77.3985 27.252 77.3964 29.2165V253.628C77.3985 255.593 78.1405 257.476 79.4596 258.865C80.7786 260.254 82.567 261.036 84.4324 261.038H459.353C461.218 261.036 463.006 260.254 464.325 258.865C465.644 257.476 466.386 255.593 466.389 253.628V29.2165C466.386 27.252 465.644 25.3686 464.325 23.9795C463.006 22.5904 461.218 21.809 459.353 21.8067H84.4324Z" fill="white"/>
<path d="M86.8965 290.677C86.32 290.678 85.7559 290.853 85.2705 291.18C84.7851 291.508 84.3987 291.974 84.1568 292.525L64.7376 336.984C64.5262 337.468 64.4337 338 64.4686 338.531C64.5036 339.063 64.665 339.576 64.9377 340.025C65.2105 340.473 65.586 340.842 66.0297 341.098C66.4734 341.353 66.971 341.487 67.4767 341.487H475.854C476.368 341.487 476.873 341.349 477.322 341.085C477.771 340.822 478.149 340.442 478.419 339.981C478.689 339.521 478.843 338.995 478.866 338.454C478.889 337.913 478.78 337.375 478.55 336.891L457.442 292.432C457.193 291.904 456.809 291.459 456.332 291.149C455.856 290.839 455.306 290.675 454.746 290.677L86.8965 290.677Z" fill="#2F2E41"/>
<path d="M270.385 18.1017C272.883 18.1017 274.908 15.9691 274.908 13.3383C274.908 10.7075 272.883 8.57484 270.385 8.57484C267.887 8.57484 265.862 10.7075 265.862 13.3383C265.862 15.9691 267.887 18.1017 270.385 18.1017Z" fill="white"/>
<path d="M230.245 349.956C229.582 349.957 228.938 350.187 228.411 350.612C227.885 351.036 227.506 351.631 227.333 352.305L222.462 371.359C222.342 371.83 222.326 372.323 222.416 372.802C222.505 373.28 222.699 373.73 222.98 374.117C223.262 374.504 223.624 374.817 224.039 375.033C224.454 375.249 224.911 375.361 225.374 375.361H318.012C318.492 375.361 318.966 375.24 319.393 375.008C319.821 374.776 320.189 374.439 320.468 374.027C320.746 373.615 320.928 373.138 320.996 372.637C321.064 372.136 321.018 371.625 320.86 371.146L314.598 352.092C314.392 351.469 314.008 350.928 313.497 350.545C312.986 350.162 312.375 349.956 311.748 349.956L230.245 349.956Z" fill="#2F2E41"/>
<path d="M477.445 271.094V275.328H63.0225L63.3347 274.799V271.094H477.445Z" fill="#2F2E41"/>
<path d="M348.602 61.4555H250.823V63.3363H348.602C353.416 63.3363 358.033 65.3502 361.437 68.9351C364.841 72.5199 366.754 77.3819 366.754 82.4516C366.754 87.5214 364.841 92.3834 361.437 95.9682C358.033 99.5531 353.416 101.567 348.602 101.567H200.646C195.832 101.567 191.215 99.5531 187.811 95.9682C184.407 92.3834 182.494 87.5214 182.494 82.4516C182.494 77.3819 184.407 72.5199 187.811 68.9351C191.215 65.3502 195.832 63.3363 200.646 63.3363H206.175V61.4555H200.646C195.36 61.4588 190.292 63.6723 186.555 67.6095C182.819 71.5467 180.72 76.8853 180.72 82.4516C180.72 88.018 182.819 93.3566 186.555 97.2938C190.292 101.231 195.36 103.445 200.646 103.448H348.602C351.222 103.449 353.815 102.908 356.236 101.853C358.656 100.799 360.855 99.2524 362.708 97.3025C364.56 95.3527 366.03 93.0375 367.032 90.4894C368.035 87.9412 368.551 85.2099 368.551 82.4516C368.551 79.6934 368.035 76.9621 367.032 74.4139C366.03 71.8657 364.56 69.5506 362.708 67.6008C360.855 65.6509 358.656 64.1046 356.236 63.0502C353.815 61.9958 351.222 61.4539 348.602 61.4555V61.4555Z" fill="#E6E6E6"/>
<path d="M348.602 126.344H250.823V128.224H348.602C353.414 128.227 358.028 130.243 361.43 133.827C364.832 137.412 366.742 142.272 366.742 147.34C366.742 152.407 364.832 157.268 361.43 160.852C358.028 164.437 353.414 166.452 348.602 166.455H200.646C195.832 166.455 191.215 164.441 187.811 160.856C184.407 157.271 182.494 152.409 182.494 147.34C182.494 142.27 184.407 137.408 187.811 133.823C191.215 130.238 195.832 128.224 200.646 128.224H206.175V126.344H200.646C195.36 126.347 190.292 128.56 186.555 132.498C182.819 136.435 180.72 141.773 180.72 147.34C180.72 152.906 182.819 158.245 186.555 162.182C190.292 166.119 195.36 168.333 200.646 168.336H348.602C351.222 168.337 353.815 167.796 356.236 166.741C358.656 165.687 360.855 164.14 362.708 162.191C364.56 160.241 366.03 157.926 367.032 155.377C368.035 152.829 368.551 150.098 368.551 147.34C368.551 144.581 368.035 141.85 367.032 139.302C366.03 136.754 364.56 134.439 362.708 132.489C360.855 130.539 358.656 128.993 356.236 127.938C353.815 126.884 351.222 126.342 348.602 126.344V126.344Z" fill="#E6E6E6"/>
<path d="M348.602 191.232H250.823V193.112H348.602C353.416 193.112 358.033 195.126 361.437 198.711C364.841 202.296 366.754 207.158 366.754 212.228C366.754 217.297 364.841 222.16 361.437 225.744C358.033 229.329 353.416 231.343 348.602 231.343H200.646C195.832 231.343 191.215 229.329 187.811 225.744C184.407 222.16 182.495 217.297 182.495 212.228C182.495 207.158 184.407 202.296 187.811 198.711C191.215 195.126 195.832 193.112 200.646 193.112H206.175V191.232H200.646C195.358 191.232 190.287 193.444 186.548 197.381C182.809 201.319 180.709 206.659 180.709 212.228C180.709 217.796 182.809 223.137 186.548 227.074C190.287 231.012 195.358 233.224 200.646 233.224H348.602C351.221 233.224 353.813 232.681 356.232 231.626C358.651 230.571 360.849 229.024 362.7 227.074C364.551 225.125 366.02 222.81 367.022 220.263C368.024 217.715 368.539 214.985 368.539 212.228C368.539 209.471 368.024 206.74 367.022 204.193C366.02 201.646 364.551 199.331 362.7 197.381C360.849 195.432 358.651 193.885 356.232 192.83C353.813 191.775 351.221 191.232 348.602 191.232V191.232Z" fill="#E6E6E6"/>
<path d="M217.211 56.4867C215.818 56.5105 214.49 57.1101 213.512 58.1562C212.535 59.2022 211.987 60.6109 211.987 62.0784C211.987 63.5459 212.535 64.9546 213.512 66.0006C214.49 67.0467 215.818 67.6463 217.211 67.6701H240.505C241.202 67.6822 241.895 67.5495 242.544 67.2796C243.192 67.0097 243.784 66.6079 244.285 66.0972C244.786 65.5865 245.187 64.9769 245.464 64.3031C245.742 63.6293 245.891 62.9045 245.902 62.1702C245.913 61.4359 245.787 60.7064 245.531 60.0233C245.275 59.3403 244.893 58.7171 244.408 58.1894C243.924 57.6616 243.345 57.2396 242.705 56.9475C242.065 56.6553 241.377 56.4987 240.68 56.4867C240.621 56.4856 240.563 56.4856 240.505 56.4867H217.211Z" fill="#3F3D56"/>
<path d="M217.211 122.315C215.818 122.339 214.49 122.939 213.512 123.985C212.535 125.031 211.987 126.439 211.987 127.907C211.987 129.374 212.535 130.783 213.512 131.829C214.49 132.875 215.818 133.475 217.211 133.499H240.505C241.913 133.523 243.273 132.957 244.285 131.926C245.297 130.894 245.879 129.482 245.902 127.999C245.925 126.516 245.388 125.084 244.408 124.018C243.429 122.952 242.088 122.34 240.68 122.315C240.621 122.314 240.563 122.314 240.505 122.315H217.211Z" fill="#3F3D56"/>
<path d="M217.211 186.263C215.818 186.287 214.49 186.886 213.513 187.932C212.535 188.979 211.988 190.387 211.988 191.855C211.988 193.322 212.535 194.731 213.513 195.777C214.49 196.823 215.818 197.422 217.211 197.446H240.505C241.913 197.471 243.273 196.905 244.285 195.873C245.297 194.842 245.879 193.429 245.902 191.946C245.925 190.463 245.388 189.031 244.408 187.966C243.429 186.9 242.088 186.287 240.68 186.263C240.621 186.262 240.563 186.262 240.505 186.263H217.211Z" fill="#3F3D56"/>
<path d="M207.972 76.8599C206.579 76.8838 205.251 77.4834 204.273 78.5294C203.296 79.5755 202.748 80.9842 202.748 82.4517C202.748 83.9191 203.296 85.3278 204.273 86.3739C205.251 87.4199 206.579 88.0195 207.972 88.0434H341.101C341.799 88.0554 342.491 87.9227 343.14 87.6528C343.788 87.383 344.38 86.9812 344.881 86.4705C345.382 85.9598 345.783 85.3501 346.061 84.6763C346.338 84.0025 346.487 83.2778 346.498 82.5434C346.51 81.8091 346.384 81.0796 346.127 80.3966C345.871 79.7136 345.49 79.0904 345.005 78.5626C344.52 78.0349 343.941 77.6129 343.301 77.3207C342.661 77.0286 341.973 76.872 341.276 76.8599C341.218 76.8589 341.159 76.8589 341.101 76.8599H207.972Z" fill="#0C0C0C"/>
<path d="M207.972 141.748C206.579 141.772 205.251 142.372 204.274 143.418C203.296 144.464 202.749 145.872 202.749 147.34C202.749 148.807 203.296 150.216 204.274 151.262C205.251 152.308 206.579 152.907 207.972 152.931H341.101C341.799 152.943 342.491 152.811 343.14 152.541C343.788 152.271 344.38 151.869 344.881 151.359C345.382 150.848 345.783 150.238 346.061 149.564C346.338 148.891 346.487 148.166 346.498 147.432C346.51 146.697 346.384 145.968 346.127 145.285C345.871 144.602 345.49 143.978 345.005 143.451C344.52 142.923 343.941 142.501 343.301 142.209C342.661 141.917 341.973 141.76 341.276 141.748C341.218 141.747 341.159 141.747 341.101 141.748H207.972Z" fill="#0C0C0C"/>
<path d="M207.972 206.636C206.579 206.66 205.251 207.26 204.274 208.306C203.296 209.352 202.749 210.76 202.749 212.228C202.749 213.695 203.296 215.104 204.274 216.15C205.251 217.196 206.579 217.796 207.972 217.82H341.101C341.799 217.832 342.491 217.699 343.14 217.429C343.788 217.159 344.38 216.757 344.881 216.247C345.382 215.736 345.783 215.126 346.061 214.452C346.338 213.779 346.487 213.054 346.498 212.32C346.51 211.585 346.384 210.856 346.127 210.173C345.871 209.49 345.49 208.867 345.005 208.339C344.52 207.811 343.941 207.389 343.301 207.097C342.661 206.805 341.973 206.648 341.276 206.636C341.218 206.635 341.159 206.635 341.101 206.636H207.972Z" fill="#E6E6E6"/>
<path d="M158.527 93.2091C164.399 93.2091 169.16 88.1956 169.16 82.0111C169.16 75.8267 164.399 70.8131 158.527 70.8131C152.654 70.8131 147.894 75.8267 147.894 82.0111C147.894 88.1956 152.654 93.2091 158.527 93.2091Z" fill="#0C0C0C"/>
<path d="M157.54 86.6118L154.443 82.4174L156.244 80.9417L157.711 82.9276L162.666 77.4194L164.323 79.0729L157.54 86.6118Z" fill="white"/>
<path d="M158.527 158.097C164.399 158.097 169.16 153.084 169.16 146.899C169.16 140.715 164.399 135.701 158.527 135.701C152.654 135.701 147.894 140.715 147.894 146.899C147.894 153.084 152.654 158.097 158.527 158.097Z" fill="#0C0C0C"/>
<path d="M157.54 151.5L154.443 147.306L156.244 145.83L157.711 147.816L162.666 142.308L164.323 143.961L157.54 151.5Z" fill="white"/>
<path d="M158.527 222.985C164.399 222.985 169.16 217.972 169.16 211.787C169.16 205.603 164.399 200.589 158.527 200.589C152.654 200.589 147.894 205.603 147.894 211.787C147.894 217.972 152.654 222.985 158.527 222.985Z" fill="#E6E6E6"/>
<path d="M391.592 93.2091C397.464 93.2091 402.225 88.1956 402.225 82.0111C402.225 75.8267 397.464 70.8131 391.592 70.8131C385.719 70.8131 380.959 75.8267 380.959 82.0111C380.959 88.1956 385.719 93.2091 391.592 93.2091Z" fill="#E6E6E6"/>
<path d="M391.592 158.097C397.464 158.097 402.225 153.084 402.225 146.899C402.225 140.715 397.464 135.701 391.592 135.701C385.719 135.701 380.959 140.715 380.959 146.899C380.959 153.084 385.719 158.097 391.592 158.097Z" fill="#E6E6E6"/>
<path d="M391.592 222.985C397.464 222.985 402.225 217.972 402.225 211.787C402.225 205.603 397.464 200.589 391.592 200.589C385.719 200.589 380.959 205.603 380.959 211.787C380.959 217.972 385.719 222.985 391.592 222.985Z" fill="#E6E6E6"/>
<path d="M157.54 216.388L154.443 212.194L156.244 210.718L157.711 212.704L162.666 207.196L164.323 208.849L157.54 216.388Z" fill="white"/>
<path d="M388.905 78.4143L388.02 79.3463L393.966 85.608L394.851 84.676L388.905 78.4143Z" fill="white"/>
<path d="M394.279 78.4143L388.333 84.676L389.218 85.608L395.164 79.3464L394.279 78.4143Z" fill="white"/>
<path d="M388.905 143.302L388.02 144.234L393.966 150.496L394.851 149.564L388.905 143.302Z" fill="white"/>
<path d="M394.279 143.302L388.333 149.564L389.218 150.496L395.164 144.234L394.279 143.302Z" fill="white"/>
<path d="M388.905 208.19L388.02 209.122L393.966 215.384L394.851 214.452L388.905 208.19Z" fill="white"/>
<path d="M394.279 208.19L388.333 214.452L389.218 215.384L395.164 209.122L394.279 208.19Z" fill="white"/>
<path d="M160.572 207.301C161.499 206.656 162.281 205.807 162.865 204.813C163.449 203.818 163.822 202.702 163.957 201.542C164.092 200.381 163.987 199.203 163.648 198.09C163.309 196.976 162.745 195.953 161.994 195.091L151.786 183.373L141.982 188.601L149.486 204.21C149.975 205.228 150.663 206.125 151.505 206.843C152.347 207.56 153.324 208.082 154.371 208.374C155.418 208.666 156.512 208.722 157.581 208.537C158.649 208.352 159.669 207.931 160.572 207.301V207.301Z" fill="#FFB8B8"/>
<path d="M28.6197 242.102C29.7227 241.967 30.7847 241.581 31.7326 240.972C32.6804 240.363 33.4915 239.545 34.11 238.573C34.7284 237.602 35.1394 236.501 35.3147 235.346C35.49 234.192 35.4254 233.011 35.1253 231.885L31.0444 216.575H20.0547V234.07C20.0548 235.211 20.2839 236.339 20.7272 237.379C21.1705 238.42 21.8179 239.35 22.6268 240.109C23.4357 240.868 24.3879 241.437 25.4207 241.781C26.4536 242.124 27.5438 242.234 28.6197 242.102V242.102Z" fill="#FFB8B8"/>
<path d="M92.0983 357.6L112.857 354.171L104.31 344.74H92.0983V357.6Z" fill="#FFB8B8"/>
<path d="M25.3461 358.457L46.9185 364.459C42.9452 355.778 40.4985 348.098 42.0342 343.026L31.8585 341.74L25.3461 358.457Z" fill="#FFB8B8"/>
<path d="M29.8231 343.883L42.4413 346.455L77.0385 229.005L91.6913 346.027H105.123L103.902 180.568H51.8027L29.8231 343.883Z" fill="#575A88"/>
<path d="M96.0726 362.805L116.606 355.692C117.151 355.503 117.65 355.193 118.071 354.783C118.492 354.373 118.824 353.872 119.045 353.314C119.265 352.757 119.369 352.156 119.349 351.552C119.329 350.949 119.186 350.357 118.93 349.816V349.816C118.578 349.075 118.025 348.459 117.342 348.047C116.658 347.635 115.875 347.445 115.089 347.501L110.431 347.833L108.606 346.751C108.413 346.637 108.192 346.589 107.973 346.613C107.753 346.638 107.547 346.734 107.381 346.888C107.216 347.042 107.101 347.246 107.051 347.473C107.001 347.699 107.019 347.936 107.103 348.151L108.787 352.456L91.6914 351.17L90.848 358.277C90.7642 358.982 90.8513 359.699 91.1011 360.359C91.3508 361.02 91.7552 361.604 92.2766 362.056C92.7979 362.507 93.4194 362.813 94.083 362.944C94.7467 363.075 95.4311 363.028 96.0726 362.805V362.805Z" fill="#575A88"/>
<path d="M26.6723 366.075L48.9928 367.6C49.585 367.64 50.1785 367.546 50.7329 367.323C51.2874 367.1 51.7898 366.754 52.2059 366.309C52.6221 365.863 52.9423 365.329 53.1447 364.741C53.3471 364.154 53.4269 363.527 53.3789 362.904C53.3129 362.049 53.0082 361.233 52.5032 360.56C51.9982 359.886 51.3155 359.385 50.5408 359.119L45.9478 357.543L44.5923 355.762C44.4495 355.574 44.2548 355.438 44.0351 355.372C43.8154 355.307 43.5818 355.315 43.3667 355.395C43.1516 355.476 42.9656 355.625 42.8347 355.822C42.7038 356.019 42.6345 356.254 42.6363 356.495L42.6732 361.312L26.734 353.124L23.3179 359.602C22.9786 360.246 22.7994 360.969 22.7968 361.705C22.7943 362.441 22.9685 363.165 23.3032 363.811C23.6379 364.457 24.1224 365.004 24.7114 365.399C25.3004 365.795 25.975 366.028 26.6723 366.075V366.075Z" fill="#575A88"/>
<path d="M74.1893 87.9798C82.5067 87.9798 89.2493 80.879 89.2493 72.1198C89.2493 63.3605 82.5067 56.2598 74.1893 56.2598C65.8719 56.2598 59.1293 63.3605 59.1293 72.1198C59.1293 80.879 65.8719 87.9798 74.1893 87.9798Z" fill="#FFB8B8"/>
<path d="M64.4206 101.268H85.179V80.2641H64.4206C66.1361 86.7508 65.9143 93.8186 64.4206 101.268Z" fill="#FFB8B8"/>
<path d="M48.9536 182.711L105.937 183.569L111.636 120.169C111.636 116.032 110.406 112 108.118 108.637C105.83 105.275 102.6 102.751 98.8812 101.421L90.0633 98.2673L85.179 92.2663C79.0123 90.8628 72.3027 91.203 65.2347 92.6949L59.9433 100.839L54.2453 102.754C50.3731 104.056 47.0076 106.648 44.6562 110.139C42.3047 113.631 41.0949 117.833 41.209 122.112C45.449 145.175 48.7459 166.611 48.9536 182.711Z" fill="#0C0C0C"/>
<path d="M18.0196 216.575L32.2655 218.289L48.5466 149.277L50.1747 104.697L49.694 104.942C45.9256 106.862 42.6336 109.68 40.0788 113.173C37.5239 116.665 35.7764 120.736 34.9747 125.064L18.0196 216.575Z" fill="#0C0C0C"/>
<path d="M142.57 190.856L153.559 185.283L121.325 121.94C116.644 112.74 109.034 105.573 99.832 101.697V101.697L105.937 141.99L142.57 190.856Z" fill="#0C0C0C"/>
<path d="M64.8812 86.3947C64.8812 86.3947 79.6489 85.4723 79.9686 82.7823C80.2883 80.0922 82.4444 73.9558 84.9987 74.2925C87.5531 74.6292 94.6322 65.6616 93.1161 62.0465C91.5999 58.4315 84.4442 45.1219 69.8355 51.2563C55.2267 57.3906 56.9008 72.7748 58.4169 76.3899C59.9331 80.0049 64.8812 86.3947 64.8812 86.3947Z" fill="#2F2E41"/>
<path d="M426.293 280.793C426.131 280.794 425.975 280.85 425.846 280.953C425.718 281.057 425.626 281.201 425.584 281.366L424.398 286.005C424.368 286.12 424.365 286.24 424.386 286.357C424.408 286.473 424.455 286.583 424.524 286.677C424.592 286.771 424.681 286.848 424.782 286.9C424.883 286.953 424.994 286.98 425.107 286.98H447.665C447.782 286.98 447.898 286.95 448.002 286.894C448.106 286.837 448.196 286.756 448.264 286.655C448.331 286.555 448.376 286.439 448.392 286.317C448.409 286.195 448.397 286.07 448.359 285.954L446.834 281.314C446.784 281.162 446.69 281.03 446.566 280.937C446.442 280.844 446.293 280.793 446.14 280.793H426.293Z" fill="#0C0C0C"/>
<path d="M393.354 280.793C393.193 280.794 393.036 280.85 392.908 280.953C392.78 281.057 392.688 281.201 392.645 281.366L391.459 286.005C391.43 286.12 391.426 286.24 391.448 286.357C391.47 286.473 391.517 286.583 391.585 286.677C391.654 286.771 391.742 286.848 391.843 286.9C391.944 286.953 392.055 286.98 392.168 286.98H414.727C414.844 286.98 414.959 286.95 415.063 286.894C415.167 286.837 415.257 286.756 415.325 286.655C415.393 286.555 415.437 286.439 415.454 286.317C415.47 286.195 415.459 286.07 415.421 285.954L413.896 281.314C413.846 281.162 413.752 281.03 413.628 280.937C413.503 280.844 413.354 280.793 413.202 280.793H393.354Z" fill="#0C0C0C"/>
</g>
<defs>
<clipPath id="clip0">
<rect width="555" height="405" fill="white"/>
</clipPath>
</defs>
</svg>
